<svg width="30" height="30" viewBox="0 0 28 27" fill="none" xmlns="http://www.w3.org/2000/svg">
<path d="M22.0314 26.9242C21.8599 26.9248 21.6909 26.8833 21.5392 26.8033L14.0692 22.8749L6.59781 26.8033C6.42368 26.8944 6.22757 26.935 6.03158 26.9206C5.8356 26.9062 5.64754 26.8373 5.48861 26.7217C5.32968 26.6061 5.2062 26.4485 5.1321 26.2665C5.05799 26.0844 5.03621 25.8854 5.06921 25.6916L6.49656 17.3723L0.449681 11.4801C0.308666 11.3427 0.2089 11.1687 0.161669 10.9776C0.114439 10.7865 0.121628 10.586 0.182425 10.3988C0.243222 10.2115 0.3552 10.0451 0.50569 9.91819C0.656181 9.79131 0.839177 9.70907 1.03398 9.68078L9.3878 8.46718L13.1235 0.897341C13.2106 0.720904 13.3454 0.572354 13.5125 0.468485C13.6796 0.364616 13.8724 0.30957 14.0692 0.30957C14.266 0.30957 14.4588 0.364616 14.6259 0.468485C14.7931 0.572354 14.9278 0.720904 15.0149 0.897341L18.7506 8.46718L27.1037 9.68078C27.2986 9.70896 27.4817 9.79112 27.6323 9.91796C27.7828 10.0448 27.8949 10.2113 27.9558 10.3985C28.0167 10.5857 28.0239 10.7863 27.9767 10.9774C27.9295 11.1686 27.8298 11.3427 27.6887 11.4801L21.6419 17.3723L23.0692 25.6916C23.0951 25.843 23.0877 25.9981 23.0474 26.1463C23.0071 26.2944 22.9349 26.432 22.836 26.5494C22.737 26.6667 22.6136 26.7611 22.4744 26.8258C22.3352 26.8906 22.1835 26.9242 22.03 26.9242H22.0314ZM3.45202 11.4611L8.36335 16.2487C8.48548 16.3677 8.57692 16.5146 8.62982 16.6767C8.68272 16.8389 8.69552 17.0114 8.6671 17.1796L7.50765 23.9395L13.577 20.7501C13.7287 20.67 13.8977 20.6282 14.0692 20.6282C14.2407 20.6282 14.4097 20.67 14.5614 20.7501L20.6322 23.9416L19.4713 17.1796C19.4425 17.0112 19.455 16.8382 19.5078 16.6757C19.5605 16.5132 19.652 16.3659 19.7744 16.2466L24.6864 11.4611L17.8991 10.4767C17.73 10.4521 17.5694 10.3868 17.4311 10.2864C17.2928 10.1859 17.181 10.0534 17.1053 9.90015L14.0692 3.74992L11.0338 9.90015C10.9581 10.0535 10.8461 10.1861 10.7077 10.2865C10.5693 10.387 10.4085 10.4522 10.2393 10.4767L3.45202 11.4611Z" fill="#979797"/>
</svg>
