<svg width="1303" height="669" viewBox="0 0 1303 669" fill="none" xmlns="http://www.w3.org/2000/svg">
<path d="M716.228 36.3137C723.649 37.626 712.415 66.9505 708.807 82.2601C707.865 86.3976 706.923 90.5352 705.982 94.673C704.51 101.075 703.031 107.475 701.538 113.871C700.084 120.127 698.661 126.389 697.242 132.653C696.795 134.531 696.347 136.409 695.885 138.344C692.16 154.928 688.863 171.878 697.66 186.998C705.771 195.506 715.924 200.937 726.113 206.544C731.864 210.218 734.778 212.336 737.077 218.123C741.824 230.076 729.875 238.494 721.44 247.107C716.565 251.545 711.594 255.85 706.598 260.148C699.533 266.504 692.891 273.235 686.258 280.044C676.643 289.9 666.778 299.232 656.36 308.215C649.997 313.954 644.039 320.022 638.046 326.155C627.179 337.26 615.997 347.731 604.167 357.774C601.695 359.893 599.222 362.013 596.675 364.197C591.137 368.314 590.413 368.051 585.925 368.314C571.28 369.17 586.803 343.727 589.732 330.941C590.125 329.204 590.517 327.467 590.922 325.677C592.17 320.178 593.445 314.685 594.72 309.193C595.557 305.52 596.392 301.847 597.225 298.174C600.457 283.977 603.723 269.793 607.303 255.681C610.452 242.68 611.333 233.178 605.959 220.758C598.547 210.593 587.311 204.914 576.702 198.66C570.289 194.409 567.425 192.639 565.077 186.504C560.479 174.493 572.278 166.134 580.713 157.52C585.477 153.205 595.209 144.829 595.209 144.829L618.501 121.949L650.842 91.3074C650.842 91.3074 665.02 77.6321 671.925 70.5676C705.525 36.3137 708.807 35.0014 716.228 36.3137Z" fill="#42A9C4"/>
<path d="M61.4449 588.334H53.0449C51.8449 588.334 50.9949 588.134 50.4949 587.734C49.9949 587.234 49.7449 586.334 49.7449 585.034V486.634C49.7449 485.334 49.9949 484.484 50.4949 484.084C50.9949 483.584 51.8449 483.334 53.0449 483.334H61.4449C62.6449 483.334 63.4949 483.584 63.9949 484.084C64.4949 484.484 64.7449 485.334 64.7449 486.634V585.034C64.7449 586.334 64.4949 587.234 63.9949 587.734C63.4949 588.134 62.6449 588.334 61.4449 588.334Z" fill="#2D5F89"/>
<path d="M212.079 483.334H220.479C221.679 483.334 222.529 483.584 223.029 484.084C223.529 484.484 223.779 485.334 223.779 486.634V585.034C223.779 588.334 222.779 589.984 220.779 589.984C219.279 589.984 217.179 588.434 214.479 585.334L153.579 513.484V585.034C153.579 586.334 153.329 587.234 152.829 587.734C152.329 588.134 151.479 588.334 150.279 588.334H141.879C140.679 588.334 139.829 588.134 139.329 587.734C138.829 587.234 138.579 586.334 138.579 585.034V486.634C138.579 483.334 139.629 481.684 141.729 481.684C143.229 481.684 145.279 483.234 147.879 486.334L208.779 558.184V486.634C208.779 485.334 209.029 484.484 209.529 484.084C210.029 483.584 210.879 483.334 212.079 483.334Z" fill="#2D5F89"/>
<path d="M371.132 487.834C372.032 486.034 372.882 484.834 373.682 484.234C374.482 483.634 375.682 483.334 377.282 483.334H384.932C387.032 483.334 388.082 483.984 388.082 485.284C388.082 485.684 387.832 486.534 387.332 487.834L342.032 582.934C340.732 585.834 339.682 587.784 338.882 588.784C338.082 589.884 337.232 590.434 336.332 590.434C335.432 590.434 334.582 589.934 333.782 588.934C333.082 587.934 332.032 585.934 330.632 582.934L285.182 487.834C284.682 486.534 284.432 485.684 284.432 485.284C284.432 483.984 285.482 483.334 287.582 483.334H295.832C297.432 483.334 298.632 483.634 299.432 484.234C300.232 484.834 301.032 486.034 301.832 487.834L336.632 562.534L371.132 487.834Z" fill="#2D5F89"/>
<path d="M473.398 526.014V520.254H550.198V526.014H473.398Z" fill="#D9D9D9" stroke="#2D5F89" stroke-width="2" stroke-linecap="round" stroke-linejoin="round"/>
<path d="M473.398 545.214V539.454H550.198V545.214H473.398Z" fill="#D9D9D9" stroke="#2D5F89" stroke-width="2" stroke-linecap="round" stroke-linejoin="round"/>
<path d="M473.398 564.414H550.198V558.654H473.398V564.414Z" fill="#D9D9D9" stroke="#2D5F89" stroke-width="2" stroke-linecap="round" stroke-linejoin="round"/>
<path d="M435 599.934H550.2L531 580.734H454.2V503.934H531L550.2 484.734H435V599.934Z" fill="#D9D9D9" stroke="#2D5F89" stroke-width="2" stroke-linecap="round" stroke-linejoin="round"/>
<path d="M688.064 584.734C688.664 585.434 688.964 586.084 688.964 586.684C688.964 587.784 688.064 588.334 686.264 588.334H675.764C674.264 588.334 673.164 588.134 672.464 587.734C671.764 587.234 670.914 586.234 669.914 584.734L644.114 546.784L618.164 585.034C617.164 586.434 616.314 587.334 615.614 587.734C615.014 588.134 614.014 588.334 612.614 588.334H602.414C600.614 588.334 599.714 587.784 599.714 586.684C599.714 586.184 600.014 585.534 600.614 584.734L634.814 535.084L601.814 486.934C601.314 486.234 601.064 485.584 601.064 484.984C601.064 483.884 601.964 483.334 603.764 483.334H614.264C615.664 483.334 616.664 483.584 617.264 484.084C617.964 484.484 618.914 485.434 620.114 486.934L644.564 523.234L669.164 486.634C670.164 485.234 671.014 484.334 671.714 483.934C672.414 483.534 673.514 483.334 675.014 483.334H685.064C686.864 483.334 687.764 483.834 687.764 484.834C687.764 485.334 687.464 486.034 686.864 486.934L653.714 534.784L688.064 584.734Z" fill="#2D5F89"/>
<path d="M818.616 497.584H790.416C789.216 497.584 788.616 498.134 788.616 499.234V585.034C788.616 586.334 788.366 587.234 787.866 587.734C787.366 588.134 786.516 588.334 785.316 588.334H776.916C775.716 588.334 774.866 588.134 774.366 587.734C773.866 587.234 773.616 586.334 773.616 585.034V499.234C773.616 498.134 773.016 497.584 771.816 497.584H743.616C742.416 497.584 741.566 497.384 741.066 496.984C740.566 496.484 740.316 495.584 740.316 494.284V486.634C740.316 485.334 740.566 484.484 741.066 484.084C741.566 483.584 742.416 483.334 743.616 483.334H818.616C819.816 483.334 820.666 483.584 821.166 484.084C821.666 484.484 821.916 485.334 821.916 486.634V494.284C821.916 495.584 821.666 496.484 821.166 496.984C820.666 497.384 819.816 497.584 818.616 497.584Z" fill="#2D5F89"/>
<path d="M948.035 577.384V585.034C948.035 586.334 947.785 587.234 947.285 587.734C946.785 588.134 945.935 588.334 944.735 588.334H887.885C886.685 588.334 885.835 588.134 885.335 587.734C884.835 587.234 884.585 586.334 884.585 585.034V486.634C884.585 485.334 884.835 484.484 885.335 484.084C885.835 483.584 886.685 483.334 887.885 483.334H944.585C945.785 483.334 946.635 483.584 947.135 484.084C947.635 484.484 947.885 485.334 947.885 486.634V494.284C947.885 495.584 947.635 496.484 947.135 496.984C946.635 497.384 945.785 497.584 944.585 497.584H901.385C900.185 497.584 899.585 498.134 899.585 499.234V526.684C899.585 527.884 900.185 528.484 901.385 528.484H939.485C940.685 528.484 941.535 528.734 942.035 529.234C942.535 529.634 942.785 530.484 942.785 531.784V539.284C942.785 541.484 941.685 542.584 939.485 542.584H901.385C900.185 542.584 899.585 543.134 899.585 544.234V572.434C899.585 573.534 900.185 574.084 901.385 574.084H944.735C945.935 574.084 946.785 574.334 947.285 574.834C947.785 575.234 948.035 576.084 948.035 577.384Z" fill="#2D5F89"/>
<path d="M1095.07 564.934C1096.17 564.034 1097.02 563.584 1097.62 563.584C1098.32 563.584 1099.07 564.084 1099.87 565.084L1104.22 571.084C1104.72 571.784 1104.97 572.484 1104.97 573.184C1104.97 573.884 1104.37 574.784 1103.17 575.884C1092.07 585.284 1079.12 589.984 1064.32 589.984C1049.62 590.284 1036.97 585.184 1026.37 574.684C1015.77 564.184 1010.62 551.384 1010.92 536.284C1010.72 520.984 1015.92 508.034 1026.52 497.434C1037.12 486.734 1050.02 481.484 1065.22 481.684C1079.52 481.684 1092.22 486.334 1103.32 495.634C1104.32 496.334 1104.82 497.084 1104.82 497.884C1104.82 498.584 1104.52 499.384 1103.92 500.284L1099.57 506.134C1098.77 507.234 1097.97 507.784 1097.17 507.784C1096.57 507.784 1095.72 507.384 1094.62 506.584C1085.42 499.484 1075.52 495.934 1064.92 495.934C1054.12 495.934 1045.02 499.734 1037.62 507.334C1030.22 514.934 1026.52 524.484 1026.52 535.984C1026.32 547.084 1029.97 556.534 1037.47 564.334C1045.07 572.134 1054.22 575.934 1064.92 575.734C1076.12 575.734 1086.17 572.134 1095.07 564.934Z" fill="#2D5F89"/>
<path d="M1249.63 588.334H1241.23C1240.03 588.334 1239.18 588.134 1238.68 587.734C1238.18 587.234 1237.93 586.334 1237.93 585.034V543.184C1237.93 542.084 1237.33 541.534 1236.13 541.534H1186.48C1185.28 541.534 1184.68 542.084 1184.68 543.184V585.034C1184.68 586.334 1184.43 587.234 1183.93 587.734C1183.43 588.134 1182.58 588.334 1181.38 588.334H1172.98C1171.78 588.334 1170.93 588.134 1170.43 587.734C1169.93 587.234 1169.68 586.334 1169.68 585.034V486.634C1169.68 485.334 1169.93 484.484 1170.43 484.084C1170.93 483.584 1171.78 483.334 1172.98 483.334H1181.38C1182.58 483.334 1183.43 483.584 1183.93 484.084C1184.43 484.484 1184.68 485.334 1184.68 486.634V525.634C1184.68 526.834 1185.28 527.434 1186.48 527.434H1236.13C1237.33 527.434 1237.93 526.834 1237.93 525.634V486.634C1237.93 485.334 1238.18 484.484 1238.68 484.084C1239.18 483.584 1240.03 483.334 1241.23 483.334H1249.63C1250.83 483.334 1251.68 483.584 1252.18 484.084C1252.68 484.484 1252.93 485.334 1252.93 486.634V585.034C1252.93 586.334 1252.68 587.234 1252.18 587.734C1251.68 588.134 1250.83 588.334 1249.63 588.334Z" fill="#2D5F89"/>
</svg>
